# xmcd
#
# Track frame offsets:
#	150
#	14484
#	35977
#	52929
#	63700
#	84087
#	110181
#	131220
#	156637
#	189917
#	203059
#	228333
#	241892
#	272237
#	283245
#	309211
#
# Disc length: 4375 seconds
#
# Revision: 1
# Processed by: cddbd v1.5.2PL0 Copyright (c) Steve Scherf et al.
# Submitted via: audiograbber 1.83.01
#
DISCID=eb111510
DTITLE=Johnny Young - The Complete Blue Horizon Sessions
DYEAR=2007
DGENRE=Blues
TTITLE0=Moaning And Groaning
TTITLE1=Heard My Doorbell Ring
TTITLE2=My Trainfare Out Of Town
TTITLE3=Lula Mae
TTITLE4=Jackson Bound (takes 1 and 2)
TTITLE5=Walking Slow (remix)
TTITLE6=Deal The Cards (take 1)
TTITLE7=Deal The Cards (takes 2 and 3)
TTITLE8=Lend Me Your Love (takes 1, 2, 3 and 4)
TTITLE9=Lorraine
TTITLE10=Prison Bound (takes 1, 2 and 3)
TTITLE11=Little Girl
TTITLE12=Mean Black Snake (remix)
TTITLE13=Stealin'
TTITLE14=Go Ahead On (With That Funky Broadway Sound) (takes 1 and 2)
TTITLE15=Johnny's Mess Around
EXTD=
EXTT0=
EXTT1=
EXTT2=
EXTT3=
EXTT4=
EXTT5=
EXTT6=
EXTT7=
EXTT8=
EXTT9=
EXTT10=
EXTT11=
EXTT12=
EXTT13=
EXTT14=
EXTT15=
PLAYORDER=
